<svg width="600" height="600" viewBox="-300 -300 600 600" xmlns="http://www.w3.org/2000/svg">
  <defs>
    <radialGradient id="gy" cx="0" cy="0" r="285" gradientUnits="userSpaceOnUse">
      <stop offset="0%" stop-color="#ffd966" stop-opacity="1"/>
      <stop offset="100%" stop-color="#ffd966" stop-opacity="0"/>
    </radialGradient>
    <radialGradient id="gc" cx="0" cy="0" r="285" gradientUnits="userSpaceOnUse">
      <stop offset="0%" stop-color="#fffbe8" stop-opacity="1"/>
      <stop offset="100%" stop-color="#fffbe8" stop-opacity="0"/>
    </radialGradient>
    <radialGradient id="ellipseGrad" cx="50%" cy="50%" r="50%" fx="50%" fy="50%">
      <stop offset="0%" stop-color="white" stop-opacity="1"/>
      <stop offset="100%" stop-color="white" stop-opacity="0"/>
    </radialGradient>
    <mask id="ellipFade">
      <ellipse cx="0" cy="0" rx="428" ry="100" fill="url(#ellipseGrad)"/>
    </mask>
    <filter id="rayBlur" x="-50%" y="-50%" width="200%" height="200%">
      <feGaussianBlur stdDeviation="5"/>
    </filter>
  </defs>
  <g filter="url(#rayBlur)" mask="url(#ellipFade)">
    <polygon points="0,0 57,285 -57,285" fill="url(#gy)" transform="rotate(0)"/>
    <polygon points="0,0 57,285 -57,285" fill="url(#gc)" transform="rotate(22.5)"/>
    <polygon points="0,0 57,285 -57,285" fill="url(#gy)" transform="rotate(45)"/>
    <polygon points="0,0 57,285 -57,285" fill="url(#gc)" transform="rotate(67.5)"/>
    <polygon points="0,0 57,285 -57,285" fill="url(#gy)" transform="rotate(90)"/>
    <polygon points="0,0 57,285 -57,285" fill="url(#gc)" transform="rotate(112.5)"/>
    <polygon points="0,0 57,285 -57,285" fill="url(#gy)" transform="rotate(135)"/>
    <polygon points="0,0 57,285 -57,285" fill="url(#gc)" transform="rotate(157.5)"/>
    <polygon points="0,0 57,285 -57,285" fill="url(#gy)" transform="rotate(180)"/>
    <polygon points="0,0 57,285 -57,285" fill="url(#gc)" transform="rotate(202.5)"/>
    <polygon points="0,0 57,285 -57,285" fill="url(#gy)" transform="rotate(225)"/>
    <polygon points="0,0 57,285 -57,285" fill="url(#gc)" transform="rotate(247.5)"/>
    <polygon points="0,0 57,285 -57,285" fill="url(#gy)" transform="rotate(270)"/>
    <polygon points="0,0 57,285 -57,285" fill="url(#gc)" transform="rotate(292.5)"/>
    <polygon points="0,0 57,285 -57,285" fill="url(#gy)" transform="rotate(315)"/>
    <polygon points="0,0 57,285 -57,285" fill="url(#gc)" transform="rotate(337.5)"/>
  </g>
</svg>
