<?xml version="1.0" encoding="UTF-8" standalone="no"?>
<!-- Created with Inkscape (http://www.inkscape.org/) -->

<svg
   width="25.494844mm"
   height="25.494844mm"
   viewBox="0 0 25.494844 25.494844"
   version="1.1"
   id="svg5"
   inkscape:version="1.1.1 (c3084ef, 2021-09-22)"
   sodipodi:docname="logo.svg"
   xmlns:inkscape="http://www.inkscape.org/namespaces/inkscape"
   xmlns:sodipodi="http://sodipodi.sourceforge.net/DTD/sodipodi-0.dtd"
   xmlns:xlink="http://www.w3.org/1999/xlink"
   xmlns="http://www.w3.org/2000/svg"
   xmlns:svg="http://www.w3.org/2000/svg">
  <sodipodi:namedview
     id="namedview7"
     pagecolor="#ffffff"
     bordercolor="#666666"
     borderopacity="1.0"
     inkscape:pageshadow="2"
     inkscape:pageopacity="0.0"
     inkscape:pagecheckerboard="0"
     inkscape:document-units="mm"
     showgrid="false"
     fit-margin-top="0"
     fit-margin-left="0"
     fit-margin-right="0"
     fit-margin-bottom="0"
     inkscape:zoom="0.77771465"
     inkscape:cx="-183.87207"
     inkscape:cy="171.65679"
     inkscape:window-width="2051"
     inkscape:window-height="1217"
     inkscape:window-x="509"
     inkscape:window-y="95"
     inkscape:window-maximized="0"
     inkscape:current-layer="layer1" />
  <defs
     id="defs2">
    <linearGradient
       id="linearGradient985"
       inkscape:swatch="solid">
      <stop
         style="stop-color:#1ed100;stop-opacity:1;"
         offset="0"
         id="stop983" />
    </linearGradient>
    <linearGradient
       inkscape:collect="always"
       xlink:href="#linearGradient985"
       id="linearGradient987"
       x1="56.65464"
       y1="115.6701"
       x2="64.118561"
       y2="115.6701"
       gradientUnits="userSpaceOnUse" />
    <linearGradient
       inkscape:collect="always"
       xlink:href="#linearGradient985"
       id="linearGradient1071"
       gradientUnits="userSpaceOnUse"
       x1="56.65464"
       y1="115.6701"
       x2="64.118561"
       y2="115.6701"
       gradientTransform="translate(8.4666671)" />
  </defs>
  <g
     inkscape:label="Layer 1"
     inkscape:groupmode="layer"
     id="layer1"
     transform="translate(-51.89175,-107.00515)">
    <rect
       style="fill:#d10000;stroke:#d10000;stroke-width:1"
       id="rect957"
       width="24.494844"
       height="24.494844"
       x="52.39175"
       y="107.50515" />
    <ellipse
       style="fill:url(#linearGradient987);fill-opacity:1;stroke:#d10000;stroke-width:1"
       id="path981"
       cx="60.3866"
       cy="115.6701"
       rx="3.2319589"
       ry="2.7216496" />
    <ellipse
       style="fill:url(#linearGradient1071);fill-opacity:1;stroke:#d10000;stroke-width:1"
       id="ellipse1069"
       cx="68.853271"
       cy="115.6701"
       rx="3.2319589"
       ry="2.7216496" />
    <path
       style="fill:#ffff00;stroke:#000000;stroke-width:0.264583px;stroke-linecap:butt;stroke-linejoin:miter;stroke-opacity:1"
       d="m 56.474227,124.51546 c 2.488816,0.31485 1.277101,0.9369 2.041237,1.70103 0.160374,0.16038 0.477551,-0.10143 0.680413,0 0.286885,0.14345 0.364027,0.62768 0.68041,0.68042 0.711555,0.11859 4.808815,0.5517 5.443299,0.3402 2.54,-0.84666 -1.859587,0.16626 0.680413,-0.68041 0.215165,-0.0717 0.477552,0.10143 0.680414,0 0.101428,-0.0507 -0.107585,-0.30435 0,-0.34021 1.887828,-0.62927 0.25895,0.62118 1.70103,-0.3402 0.210986,-0.14066 0.113403,-0.56701 0.340206,-0.68042 0.202859,-0.10142 0.463172,0.0652 0.680413,0 0.928045,-0.27841 1.82204,-0.66077 2.721647,-1.02061 0.761878,-0.30476 0.767202,-1.02062 1.360826,-1.02062"
       id="path1139" />
  </g>
</svg>
